<?xml version="1.0" encoding="UTF-8"?>
<svg width="64px" height="64px" viewBox="0 0 64 64" version="1.1" xmlns="http://www.w3.org/2000/svg" xmlns:xlink="http://www.w3.org/1999/xlink">
    <!-- Generator: Sketch 51.1 (57501) - http://www.bohemiancoding.com/sketch -->
    <title>favicon_64x64</title>
    <desc>Created with Sketch.</desc>
    <defs></defs>
    <g id="favicon_64x64" stroke="none" stroke-width="1" fill="none" fill-rule="evenodd">
        <g id="Group" transform="translate(1.000000, 1.000000)" fill="#C71D3D">
            <path d="M22.4449322,3.10644572 C23.9104425,1.77080309 25.0284516,0.95070176 26.0407519,0.394545056 C27.6555274,0.134913272 29.3120084,0 31,0 C33.1792853,0 35.3060481,0.224875571 37.3583499,0.652688141 C38.6553793,1.44191693 40.16785,2.69119056 42.3543031,4.87764367 L58.0756751,20.5990157 C59.4574022,21.9807428 60.4648576,23.0933085 61.2184582,24.0524371 C61.7298575,26.285939 62,28.6114219 62,31 C62,33.8888539 61.604847,36.6854149 60.8656437,39.3385804 C60.1574786,40.1962817 59.2522735,41.1777047 58.0756751,42.3543031 L55.9023929,44.5275854 L46.4626776,35.2634588 L50.6507576,31.0753788 L22.4449322,3.10644572 Z M16.7906401,8.68601932 L25.1245117,16.9870605 L16.0271923,26.2634327 L14.3545835,27.9689617 L12.8523202,29.5007924 L10.9853516,31.4045065 L31,51.2211914 L35.0014648,47.6069336 L43.6692371,56.7607411 L42.3543031,58.0756751 C41.1777047,59.2522735 40.1962817,60.1574786 39.3385772,60.8656448 C36.6854149,61.604847 33.8888539,62 31,62 C28.6114219,62 26.285939,61.7298575 24.0524371,61.2184582 C23.0933085,60.4648576 21.9807428,59.4574022 20.5990157,58.0756751 L4.87764367,42.3543031 C2.69119056,40.16785 1.44191693,38.6553793 0.652688141,37.3583499 C0.224875571,35.3060481 0,33.1792853 0,31 C0,29.3120084 0.134913272,27.6555274 0.394545056,26.0407519 C1.16324149,24.641593 2.43616736,23.040492 4.87764367,20.5990157 L16.7906401,8.68601932 Z" id="Combined-Shape"></path>
            <rect id="Rectangle" transform="translate(31.192388, 32.192388) rotate(45.000000) translate(-31.192388, -32.192388) " x="24.6923882" y="25.6923882" width="13" height="13"></rect>
        </g>
    </g>
</svg>