<?xml version="1.0" encoding="UTF-8"?>
<svg width="55px" height="55px" viewBox="0 0 55 55" version="1.1" xmlns="http://www.w3.org/2000/svg" xmlns:xlink="http://www.w3.org/1999/xlink">
    <!-- Generator: Sketch 51.3 (57544) - http://www.bohemiancoding.com/sketch -->
    <title>toolbar_geo_union</title>
    <desc>Created with Sketch.</desc>
    <defs></defs>
    <g id="toolbar_geo_union" stroke="none" stroke-width="1" fill="none" fill-rule="evenodd">
        <g id="Group" transform="translate(6.000000, 10.000000)" stroke="#9B9B9B" stroke-dasharray="1,1">
            <path d="M13,38 C20.1797017,38 26,32.1797017 26,25 C26,17.8202983 20.1797017,12 13,12 C5.82029825,12 0,17.8202983 0,25 C0,32.1797017 5.82029825,38 13,38 Z" id="Oval-2"></path>
            <path d="M16,0 L41,0 L41,25 L16,25 L16,0 Z" id="Rectangle"></path>
        </g>
        <g id="Group" transform="translate(6.000000, 10.000000)" stroke="#4A4A4A" stroke-width="2">
            <path d="M16,12.3478637 L16,0 L41,0 L41,25 L26,25 C26,32.1797017 20.1797017,38 13,38 C5.82029825,38 0,32.1797017 0,25 C0,17.8202983 5.82029825,12 13,12 C14.0325385,12 15.0369613,12.1203774 16,12.3478637 Z" id="Combined-Shape"></path>
        </g>
    </g>
</svg>