<?xml version="1.0" encoding="UTF-8"?>
<svg width="55px" height="55px" viewBox="0 0 55 55" version="1.1" xmlns="http://www.w3.org/2000/svg" xmlns:xlink="http://www.w3.org/1999/xlink">
    <!-- Generator: Sketch 51.2 (57519) - http://www.bohemiancoding.com/sketch -->
    <title>status_index_true</title>
    <desc>Created with Sketch.</desc>
    <defs></defs>
    <g id="status_index_true" stroke="none" stroke-width="1" fill="none" fill-rule="evenodd">
        <polyline id="Shape" stroke="#4A4A4A" stroke-width="2" stroke-linecap="round" fill-rule="nonzero" points="34 39.6454366 38.5027125 44 46 36.7458963"></polyline>
        <rect id="Rectangle-path" fill="#4A4A4A" fill-rule="nonzero" x="21" y="8" width="4" height="3"></rect>
        <rect id="Rectangle-path" fill="#4A4A4A" fill-rule="nonzero" x="27" y="8" width="4" height="3"></rect>
        <path d="M36.3557487,20.5633682 L33.5120933,20.5633682 L33.5120933,4 L18.8436554,4 L18.8436554,20.5633682 L16,20.5633682 L16,46.3844839 L31.0957219,46.3844839 L31.3960029,46.7680128 C34.5917261,50.8496975 40.2155029,51.9643868 44.676122,49.4041748 C49.1460085,46.8386436 51.130095,41.3394761 49.3512883,36.4278248 C47.5751966,31.5236702 42.5755194,28.6622563 37.5513957,29.6645812 L36.3557487,29.9031157 L36.3557487,20.5633682 Z" id="Path" stroke="#4A4A4A" stroke-width="2" fill-rule="nonzero"></path>
        <path d="M25.5,46.5 L25.5,52.5" id="Line" stroke="#4A4A4A" stroke-width="2" stroke-linecap="square"></path>
        <path d="M49.9528275,40.139346 C49.9499299,45.9836265 45.2963811,50.7195117 39.5575714,50.7185281 C33.8187617,50.7175445 29.1667786,45.9800643 29.1658127,40.1357831 C29.1648468,34.2915019 33.8152637,29.5524273 39.5540728,29.5494764 C45.2947489,29.5553667 49.9470435,34.2931641 49.9528275,40.139346 Z" id="Path" stroke="#4A4A4A" stroke-width="2" stroke-linecap="round" fill-rule="nonzero"></path>
        <path d="M20,21 L33,21" id="Line-8" stroke="#4A4A4A" stroke-linecap="square"></path>
    </g>
</svg>